<?xml version="1.0" encoding="utf-8"?>
<!-- Generator: Adobe Illustrator 27.8.1, SVG Export Plug-In . SVG Version: 6.00 Build 0)  -->
<svg version="1.1" id="Calque_1" xmlns="http://www.w3.org/2000/svg" xmlns:xlink="http://www.w3.org/1999/xlink" x="0px" y="0px"
	 viewBox="0 0 329.2 292.9" style="enable-background:new 0 0 329.2 292.9;" xml:space="preserve">
<style type="text/css">
	.st0{fill:#FFFFFF;}
	.st1{fill:none;}
</style>
<g>
	<path class="st0" d="M303.1,28.7C286.1,10.2,262.7,0,237.3,0c-19,0-36.4,6-51.7,17.9c-7.7,6-14.7,13.3-20.9,21.9
		c-6.2-8.6-13.2-15.9-20.9-21.9C128.3,6,111,0,91.9,0C66.5,0,43.1,10.2,26.1,28.7C9.3,47,0,71.9,0,99c0,27.8,10.4,53.3,32.7,80.2
		c19.9,24,48.5,48.5,81.7,76.7c11.3,9.6,24.2,20.6,37.5,32.3c3.5,3.1,8,4.8,12.7,4.8s9.2-1.7,12.7-4.8
		c13.3-11.6,26.2-22.6,37.5-32.3c33.2-28.3,61.8-52.7,81.7-76.7c22.2-26.9,32.7-52.3,32.7-80.2C329.2,71.9,319.9,47,303.1,28.7z"/>
</g>
<rect x="440.8" y="65.5" class="st1" width="865.7" height="161.8"/>
</svg>
