<?xml version="1.0" encoding="utf-8"?>
<!-- Generator: Adobe Illustrator 27.8.1, SVG Export Plug-In . SVG Version: 6.00 Build 0)  -->
<svg version="1.1" id="Calque_1" xmlns="http://www.w3.org/2000/svg" xmlns:xlink="http://www.w3.org/1999/xlink" x="0px" y="0px"
	 viewBox="0 0 566.9 566.9" style="enable-background:new 0 0 566.9 566.9;" xml:space="preserve">
<style type="text/css">
	.st0{fill:#FFFFFF;}
	.st1{fill:#EE7221;}
	.st2{font-family:'Poppins-SemiBold';}
	.st3{font-size:32.26px;}
	.st4{font-size:32.2613px;}
	.st5{font-size:29.0412px;}
	.st6{font-size:29.0414px;}
	.st7{font-size:29.04px;}
	.st8{font-size:29.041px;}
	.st9{font-size:29.0391px;}
</style>
<g>
	<path class="st0" d="M513.2,482.6c-9.8-4.8-19.6-9.4-29.3-14.2c-4.2-2-6.9-0.1-8.8,3.2c-2.8,5-6.6,6.5-11.4,3.2
		c-8-5.5-13.6-2.4-19.7,3.7c-5,5.1-3.8,7.2,2,9.6c16.2,6.5,31.9,13.8,47.4,21.7c6.5,3.3,8.6,1.1,7.3-5.4c-1.4-7.3,1-11.9,8.5-14
		c2.5-0.7,5.2-1.6,6.9-4.4C515.9,484.2,514.6,483.3,513.2,482.6L513.2,482.6z"/>
	<path class="st0" d="M110.1,474.7c-5.8,2-9.9,1.7-12.4-4.5c-1.5-3.8-4.2-5.4-8.5-3.9c-10,3.6-20,7-30,10.5c-4.3,1.5-5.5,4-0.7,6.3
		c8.4,4.1,14.5,9,9.6,18.2c-0.8,5.5,1,6.8,5,5.5c18.1-5.9,36.1-11.8,54.2-17.7c2.6-0.8,4.4-1.8,2.8-5.2
		C126.1,475.4,118.9,471.7,110.1,474.7L110.1,474.7z"/>
	<path class="st0" d="M486.6,425.5c-64.4-18.9-130.3-27.1-198.2-28.7c-40.7,0.3-82.2,2.7-123.4,9.2c-24.7,3.9-49.1,8.8-73.2,15.4
		c-11.5,3.1-10,3.2-6.6,13.8c0.6,1.9,15.7,37.5,24.1,34.9c79.6-25.1,99.3-22.8,174.9-25.7c43.2-1.7,138.8,9,179.5,25.2
		c4.2,1.7,13.3-10.1,19.1-18.4c1.5-1.9,3.1-4.3,5-7.4v-0.1l0,0c1.1-1.8,2.2-3.8,3.6-6.1C496.5,428.4,496.4,428.3,486.6,425.5
		L486.6,425.5z"/>
	<path class="st0" d="M429.9,468.9c-13.6-4.2-49.6-10-60.5-11.4c-6.3-0.8-6.9,0.3-11.6,2.9c-24.2,13.2-49,19.1-73.7,17.9
		c-24.6,1.2-49.5-4.7-73.7-17.9c-4.7-2.6-5.3-3.7-11.6-2.9c-11,1.4-46.9,7.2-60.6,11.4c-5,1.5-3.5,7.2-2.4,8.3
		c38.7,38,85.7,57.8,141.4,58.3c2.3,0,4.6,0,6.8,0.1c2.3,0,4.6-0.1,6.8-0.1c55.7-0.6,102.7-20.3,141.4-58.3
		C433.4,476.1,434.9,470.4,429.9,468.9L429.9,468.9z"/>
	<text transform="matrix(0.899 -4.192508e-02 4.658343e-02 0.9989 233.0766 433.7385)" class="st1 st2 st3">R</text>
	<text transform="matrix(0.8997 -2.151786e-02 2.390873e-02 0.9997 251.7861 432.8874)" class="st1 st2 st3">E</text>
	<text transform="matrix(0.9 -6.283186e-04 6.981316e-04 1 267.3508 432.4881)" class="st1 st2 st3">C</text>
	<text transform="matrix(0.8999 1.507833e-02 -1.675370e-02 0.9999 289.7659 432.5377)" class="st1 st2 st4">I</text>
	<text transform="matrix(0.8996 2.795568e-02 -3.106186e-02 0.9995 297.996 432.6376)" class="st1 st2 st3">P</text>
	<text transform="matrix(0.8989 4.396480e-02 -4.884977e-02 0.9988 315.7861 433.2079)" class="st1 st2 st3">E</text>
	<text transform="matrix(0.898 5.964650e-02 -6.627390e-02 0.9978 331.3465 433.9579)" class="st1 st2 st3">S</text>
	<path class="st0" d="M499.2,245.2c-10-79.4-83.8-166.9-206.5-172.4c14.3-6.9,21.2-16.5,15.6-30.8c-3.6-9.1-13.8-13.7-24.3-13.9
		c-10.5-0.1-20.6,4.8-24.3,13.9c-5.7,14.3,1.2,23.9,15.6,30.8c-122.7,5.5-196.6,93-206.5,172.4c-0.4,3.6-1,10.8,7.1,10.8h150.8
		c0.6-4.9,1.3-9.9,1.9-14.8c0.3-3-0.6-5.8-2.4-8.2c-2.5-3.4-5.3-6.6-7.9-9.8c-0.5-0.6-0.9-1.2-1.3-1.8c-1.8-2.3-2.5-4.9-2.3-7.8
		c0.6-8.6,1.1-17.2,1.6-25.8c0.5-7.2,1-14.4,1.5-21.6c0.5-7.1,1-14.2,1.5-21.2c0-0.6,0.7-2.7,2.6-2.7c2.5,0,2.6,3.1,2.6,3.1v55.2
		h5.3c0.1-1.3,0.1-2.6,0.2-3.8c0.4-10.7,0.8-21.4,1.2-32.1c0.2-6.6,0.5-13.2,0.7-19.9c0-0.5,0.7-2.5,2.6-2.5c1.6,0,2.6,1.6,2.6,2.4
		c0.7,18.7,1.4,37.3,2.1,55.9h5.3v-55.7c0,0,0.3-2.7,2.5-2.6c1.8,0,2.6,1.6,2.7,2.5c0.1,0.6,0.1,1.2,0.1,1.8
		c0.4,5.6,0.8,11.1,1.2,16.7c0.5,6.4,1,12.9,1.4,19.3c0.5,6.6,0.9,13.1,1.4,19.7c0.2,3.4,0.3,6.7,0.6,10.1c0.4,4.1-0.8,7.6-3.4,10.7
		c-2.5,2.9-4.7,5.9-7.2,8.9c-2.9,3.5-3.7,7.5-3.1,12c0.6,4.1,1.1,8.2,1.7,12.2h86.1c0-5.3-0.1-10.6-0.1-15.9c0-32.3,0-64.6,0-96.9
		v-1.1c3.2,0.1,6.1,0.7,8.8,2.2c4,2.3,6.7,5.7,8.9,9.6c2.8,5.4,4.5,11.1,5.7,17c1,4.7,1.4,9.5,1.4,14.3c0.1,11.6,0.1,23.2,0.2,34.9
		c0,1.1-0.1,2.2-0.1,3.3c0,3-1.4,5.2-3.7,6.9c-1.1,0.8-2.3,1.4-3.4,2.1c-0.7,0.5-1.3,1-1.8,1.6c-0.6,0.7-0.8,1.6-0.6,2.5
		c1.2,6.4,2.4,12.9,3.5,19.3h144.9C500.2,255.9,499.7,248.8,499.2,245.2L499.2,245.2z"/>
	<path class="st0" d="M546.8,292.4c0-14-7.9-22.8-21.8-24.7l-482-0.2c-14.7,1.7-22.8,10.6-22.8,25.4c-0.1,38.6-0.1,77.2,0,115.9
		c0,15.7,10.4,23,25.3,18c13.5-4.5,27-9.2,40.7-13.1c79-22.2,159.6-29.9,241.5-25.2c39.7,2.2,78.8,7.6,117.6,16.1
		c26.1,5.7,51.6,13.3,76.8,22.3c13.9,5,24.7-2.5,24.8-17.1C546.9,370.6,546.9,331.5,546.8,292.4L546.8,292.4z"/>
	<g>
		<path class="st1" d="M64.6,316.3v10.9h17.6v10.1H64.6v11.8h19.9v10.5h-33v-53.9h33v10.5L64.6,316.3L64.6,316.3z"/>
		<path class="st1" d="M132.2,331.7c-1.4,2.6-3.6,4.7-6.6,6.2c-3,1.6-6.7,2.4-11.1,2.4h-8.1v19.3H93.3v-53.9h21.3
			c4.3,0,7.9,0.7,10.9,2.2s5.2,3.5,6.7,6.1s2.2,5.6,2.2,9C134.3,326.2,133.6,329.1,132.2,331.7L132.2,331.7z M119.1,328.1
			c1.2-1.2,1.8-2.8,1.8-5s-0.6-3.8-1.8-5s-3.1-1.8-5.6-1.8h-7.1v13.5h7.1C116,329.8,117.9,329.3,119.1,328.1L119.1,328.1z"/>
		<path class="st1" d="M154.5,305.7v53.9h-13.1v-53.9H154.5z"/>
		<path class="st1" d="M165.5,318.4c2.3-4.2,5.5-7.4,9.6-9.8c4.1-2.3,8.8-3.5,14-3.5c6.4,0,11.9,1.7,16.4,5.1s7.6,8,9.1,13.8h-14.4
			c-1.1-2.2-2.6-4-4.6-5.1c-2-1.2-4.2-1.8-6.7-1.8c-4,0-7.3,1.4-9.8,4.2c-2.5,2.8-3.8,6.6-3.8,11.3s1.2,8.5,3.8,11.3
			s5.8,4.2,9.8,4.2c2.5,0,4.8-0.6,6.7-1.8c2-1.2,3.5-2.9,4.6-5.1h14.4c-1.5,5.8-4.6,10.4-9.1,13.8c-4.6,3.4-10,5-16.4,5
			c-5.2,0-9.9-1.2-14-3.5s-7.3-5.6-9.6-9.7s-3.4-8.9-3.4-14.2S163.2,322.5,165.5,318.4L165.5,318.4z"/>
		<path class="st1" d="M278.2,305.7v10.5h-14.3v43.4h-13.1v-43.4h-14.3v-10.5H278.2L278.2,305.7z"/>
		<path class="st1" d="M318.6,350.1h-20.1l-3.2,9.5h-13.7l19.5-53.9h15.2l19.5,53.9h-13.9L318.6,350.1L318.6,350.1z M315.2,340
			l-6.7-19.7l-6.6,19.7H315.2z"/>
		<path class="st1" d="M350.8,358.2c-3.1-1.3-5.6-3.2-7.5-5.7s-2.9-5.5-3-9.1h14c0.2,2,0.9,3.5,2.1,4.6c1.2,1,2.7,1.6,4.6,1.6
			s3.5-0.5,4.6-1.3c1.1-0.9,1.7-2.1,1.7-3.7c0-1.3-0.5-2.4-1.3-3.3c-0.9-0.9-2-1.6-3.3-2.1c-1.3-0.6-3.2-1.2-5.6-1.9
			c-3.5-1.1-6.3-2.1-8.5-3.2s-4.1-2.7-5.7-4.8c-1.6-2.1-2.4-4.8-2.4-8.2c0-5,1.8-8.9,5.5-11.8s8.4-4.3,14.2-4.3s10.7,1.4,14.4,4.3
			s5.6,6.8,5.8,11.9h-14.2c-0.1-1.7-0.7-3.1-1.9-4.1c-1.2-1-2.7-1.5-4.5-1.5c-1.6,0-2.9,0.4-3.8,1.3c-1,0.8-1.5,2.1-1.5,3.6
			c0,1.7,0.8,3.1,2.5,4.1c1.6,1,4.2,2,7.7,3.1c3.5,1.2,6.3,2.3,8.5,3.4s4,2.6,5.6,4.7c1.6,2,2.4,4.7,2.4,7.9s-0.8,5.9-2.3,8.4
			s-3.8,4.5-6.8,6s-6.5,2.2-10.5,2.2S353.9,359.6,350.8,358.2L350.8,358.2z"/>
		<path class="st1" d="M428,305.7v10.5h-14.3v43.4h-13.1v-43.4h-14.3v-10.5H428z"/>
		<path class="st1" d="M448,316.3v10.9h17.6v10.1H448v11.8h19.9v10.5h-33v-53.9h33v10.5L448,316.3L448,316.3z"/>
		<path class="st1" d="M485.5,358.2c-3.1-1.3-5.6-3.2-7.5-5.7s-2.9-5.5-3-9.1h14c0.2,2,0.9,3.5,2.1,4.6c1.2,1,2.7,1.6,4.6,1.6
			s3.5-0.5,4.6-1.3c1.1-0.9,1.7-2.1,1.7-3.7c0-1.3-0.5-2.4-1.3-3.3c-0.9-0.9-2-1.6-3.3-2.1s-3.2-1.2-5.6-1.9
			c-3.5-1.1-6.3-2.1-8.5-3.2s-4.1-2.7-5.7-4.8c-1.6-2.1-2.4-4.8-2.4-8.2c0-5,1.8-8.9,5.5-11.8s8.4-4.3,14.2-4.3s10.7,1.4,14.3,4.3
			c3.6,2.9,5.6,6.8,5.8,11.9h-14.2c-0.1-1.7-0.7-3.1-1.9-4.1s-2.7-1.5-4.5-1.5c-1.6,0-2.9,0.4-3.8,1.3c-1,0.8-1.5,2.1-1.5,3.6
			c0,1.7,0.8,3.1,2.5,4.1c1.6,1,4.2,2,7.7,3.1c3.5,1.2,6.3,2.3,8.5,3.4s4,2.6,5.6,4.7c1.6,2,2.4,4.7,2.4,7.9s-0.8,5.9-2.3,8.4
			c-1.5,2.5-3.8,4.5-6.8,6s-6.5,2.2-10.5,2.2C492.1,360.2,488.7,359.6,485.5,358.2L485.5,358.2z"/>
	</g>
	<text transform="matrix(0.8607 0.263 -0.2922 0.9564 209.0365 504.8882)" class="st1 st2 st5">E</text>
	<text transform="matrix(0.8773 0.2009 -0.2233 0.9748 223.4157 509.2476)" class="st1 st2 st6">S</text>
	<text transform="matrix(0.8885 0.1431 -0.159 0.9873 239.9663 512.9875)" class="st1 st2 st7">T</text>
	<text transform="matrix(0.8966 7.844017e-02 -8.715574e-02 0.9962 255.967 515.5981)" class="st1 st2 st7">D</text>
	<text transform="matrix(0.8996 2.654168e-02 -2.949076e-02 0.9996 275.5969 517.1172)" class="st1 st2 st8">.</text>
	<text transform="matrix(0.8987 -4.914147e-02 5.460164e-02 0.9985 290.0857 517.4084)" class="st1 st2 st7">2</text>
	<text transform="matrix(0.8913 -0.1249 0.1388 0.9903 306.3862 516.5084)" class="st1 st2 st7">0</text>
	<text transform="matrix(0.876 -0.2064 0.2294 0.9733 324.476 513.877)" class="st1 st2 st9">2</text>
	<text transform="matrix(0.8512 -0.2923 0.3247 0.9458 340.5162 510.0772)" class="st1 st2 st7">0</text>
</g>
</svg>
