<?xml version="1.0" encoding="utf-8"?>
<!-- Generator: Adobe Illustrator 27.8.1, SVG Export Plug-In . SVG Version: 6.00 Build 0)  -->
<svg version="1.1" id="Calque_1" xmlns="http://www.w3.org/2000/svg" xmlns:xlink="http://www.w3.org/1999/xlink" x="0px" y="0px"
	 viewBox="0 0 1389.7 208.7" style="enable-background:new 0 0 1389.7 208.7;" xml:space="preserve">
<style type="text/css">
	.st0{fill:#FFFFFF;}
</style>
<g>
	<path class="st0" d="M69.5,59.2v31.5h50.7v29.2H69.5V154h57.4v30.4H31.7V28.9h95.2v30.4L69.5,59.2L69.5,59.2z"/>
	<path class="st0" d="M264.4,103.6c-4.1,7.4-10.5,13.5-19,18c-8.6,4.6-19.2,6.9-31.9,6.9H190v55.8h-37.9V28.9h61.4
		c12.4,0,22.9,2.1,31.5,6.4c8.6,4.3,15,10.2,19.3,17.7s6.4,16.2,6.4,25.9C270.6,87.9,268.5,96.2,264.4,103.6L264.4,103.6z
		 M226.7,93.3c3.5-3.4,5.3-8.2,5.3-14.4c0-6.2-1.8-11-5.3-14.4s-8.9-5.1-16.2-5.1h-20.6v39h20.6C217.8,98.4,223.2,96.7,226.7,93.3
		L226.7,93.3z"/>
	<path class="st0" d="M328.9,28.9v155.5H291V28.9H328.9z"/>
	<path class="st0" d="M360.6,65.3c6.6-12,15.9-21.4,27.8-28.1c11.9-6.7,25.4-10.1,40.4-10.1c18.5,0,34.3,4.9,47.4,14.6
		c13.1,9.8,21.9,23,26.3,39.9h-41.6c-3.1-6.5-7.5-11.4-13.2-14.8c-5.7-3.4-12.2-5.1-19.4-5.1c-11.7,0-21.1,4.1-28.3,12.2
		c-7.2,8.1-10.9,19-10.9,32.6s3.6,24.4,10.9,32.6c7.2,8.1,16.7,12.2,28.3,12.2c7.2,0,13.7-1.7,19.4-5.1c5.7-3.4,10.1-8.3,13.2-14.8
		h41.6c-4.4,16.8-13.2,30.1-26.3,39.8c-13.2,9.7-28.9,14.5-47.4,14.5c-15.1,0-28.5-3.3-40.4-10.1s-21.2-16-27.8-28
		c-6.6-11.9-10-25.6-10-41S353.9,77.4,360.6,65.3L360.6,65.3z"/>
	<path class="st0" d="M686,28.9v30.4h-41.2v125.2h-37.9V59.2h-41.2V28.8L686,28.9L686,28.9z"/>
	<path class="st0" d="M802.5,156.9h-58l-9.3,27.5h-39.7l56.3-155.5h43.9L852,184.4h-40.1L802.5,156.9L802.5,156.9z M792.7,127.7
		l-19.3-56.9l-19,56.9H792.7z"/>
	<path class="st0" d="M895.3,180.4c-9-3.7-16.2-9.1-21.6-16.4c-5.4-7.2-8.2-16-8.5-26.1h40.3c0.6,5.8,2.6,10.2,6,13.2
		s7.8,4.5,13.3,4.5s10-1.3,13.3-3.9c3.2-2.6,4.9-6.2,4.9-10.7c0-3.8-1.3-7-3.9-9.5s-5.8-4.6-9.5-6.2c-3.8-1.6-9.1-3.5-16-5.5
		c-10-3.1-18.2-6.2-24.6-9.3c-6.3-3.1-11.8-7.7-16.4-13.7c-4.6-6.1-6.9-14-6.9-23.7c0-14.5,5.3-25.8,15.7-34s24.2-12.3,41-12.3
		s30.9,4.1,41.4,12.3s16.1,19.6,16.8,34.2h-41c-0.3-5-2.1-9-5.5-11.9s-7.8-4.3-13.1-4.3c-4.6,0-8.3,1.2-11.1,3.7
		c-2.8,2.4-4.2,5.9-4.2,10.5c0,5,2.4,8.9,7.1,11.7s12.1,5.8,22.2,9.1c10,3.4,18.2,6.6,24.5,9.8c6.3,3.1,11.7,7.6,16.3,13.5
		c4.6,5.9,6.9,13.5,6.9,22.8s-2.3,16.9-6.8,24.2c-4.5,7.2-11.1,13-19.6,17.3c-8.6,4.3-18.7,6.4-30.4,6.4
		C914.2,186,904.3,184.2,895.3,180.4L895.3,180.4z"/>
	<path class="st0" d="M1118.3,28.9v30.4h-41.2v125.2h-37.9V59.2H998V28.8L1118.3,28.9L1118.3,28.9z"/>
	<path class="st0" d="M1175.9,59.2v31.5h50.7v29.2h-50.7V154h57.4v30.4h-95.2V28.9h95.2v30.4L1175.9,59.2L1175.9,59.2z"/>
	<path class="st0" d="M1284.3,180.4c-9-3.7-16.2-9.1-21.6-16.4c-5.4-7.2-8.2-16-8.5-26.1h40.3c0.6,5.8,2.6,10.2,6,13.2
		s7.8,4.5,13.3,4.5s10-1.3,13.3-3.9s4.9-6.2,4.9-10.7c0-3.8-1.3-7-3.9-9.5s-5.8-4.6-9.5-6.2c-3.8-1.6-9.1-3.5-16-5.5
		c-10-3.1-18.2-6.2-24.6-9.3c-6.3-3.1-11.8-7.7-16.4-13.7s-6.9-14-6.9-23.7c0-14.5,5.3-25.8,15.7-34s24.2-12.3,41-12.3
		c16.8,0,30.9,4.1,41.4,12.3s16.1,19.6,16.8,34.2h-41c-0.3-5-2.1-9-5.5-11.9s-7.8-4.3-13.1-4.3c-4.6,0-8.3,1.2-11.1,3.7
		c-2.8,2.4-4.2,5.9-4.2,10.5c0,5,2.4,8.9,7.1,11.7c4.7,2.8,12.1,5.8,22.2,9.1c10,3.4,18.2,6.6,24.5,9.8c6.3,3.1,11.7,7.6,16.3,13.5
		s6.9,13.5,6.9,22.8s-2.3,16.9-6.8,24.2c-4.5,7.2-11,13-19.6,17.3s-18.7,6.4-30.3,6.4S1293.3,184.2,1284.3,180.4L1284.3,180.4z"/>
</g>
</svg>
