<?xml version="1.0" encoding="utf-8"?>
<!-- Generator: Adobe Illustrator 27.8.1, SVG Export Plug-In . SVG Version: 6.00 Build 0)  -->
<svg version="1.1" id="Calque_1" xmlns="http://www.w3.org/2000/svg" xmlns:xlink="http://www.w3.org/1999/xlink" x="0px" y="0px"
	 viewBox="0 0 2161.1 559.8" style="enable-background:new 0 0 2161.1 559.8;" xml:space="preserve">
<style type="text/css">
	.st0{fill:#FFFFFF;}
	.st1{fill:#EE7221;}
	.st2{font-family:'Poppins-SemiBold';}
	.st3{font-size:32.26px;}
	.st4{font-size:29.04px;}
</style>
<g>
	<path class="st0" d="M821,231.1v31.5h50.7v29.2H821v34.1h57.4v30.4h-95.2V200.8h95.2v30.4L821,231.1L821,231.1z"/>
	<path class="st0" d="M1015.9,275.5c-4.1,7.4-10.5,13.5-19,18c-8.6,4.6-19.2,6.9-31.9,6.9h-23.5v55.8h-37.9V200.8h61.4
		c12.4,0,22.9,2.1,31.5,6.4c8.6,4.3,15,10.2,19.3,17.7c4.3,7.5,6.4,16.2,6.4,25.9C1022.1,259.8,1020,268.1,1015.9,275.5
		L1015.9,275.5z M978.2,265.2c3.5-3.4,5.3-8.2,5.3-14.4c0-6.2-1.8-11-5.3-14.4s-8.9-5.1-16.2-5.1h-20.6v39h20.6
		C969.3,270.3,974.7,268.6,978.2,265.2L978.2,265.2z"/>
	<path class="st0" d="M1080.4,200.8v155.5h-37.9V200.8H1080.4z"/>
	<path class="st0" d="M1112.1,237.2c6.6-12,15.9-21.4,27.8-28.1c11.9-6.7,25.4-10.1,40.4-10.1c18.5,0,34.3,4.9,47.4,14.6
		c13.1,9.8,21.9,23,26.3,39.9h-41.6c-3.1-6.5-7.5-11.4-13.2-14.8c-5.7-3.4-12.2-5.1-19.4-5.1c-11.7,0-21.1,4.1-28.3,12.2
		c-7.2,8.1-10.9,19-10.9,32.6c0,13.6,3.6,24.4,10.9,32.6c7.2,8.1,16.7,12.2,28.3,12.2c7.2,0,13.7-1.7,19.4-5.1
		c5.7-3.4,10.1-8.3,13.2-14.8h41.6c-4.4,16.8-13.2,30.1-26.3,39.8c-13.2,9.7-28.9,14.5-47.4,14.5c-15.1,0-28.5-3.3-40.4-10.1
		s-21.2-16-27.8-28c-6.6-11.9-10-25.6-10-41S1105.4,249.3,1112.1,237.2L1112.1,237.2z"/>
	<path class="st0" d="M1437.5,200.8v30.4h-41.2v125.2h-37.9V231.1h-41.2v-30.4H1437.5L1437.5,200.8z"/>
	<path class="st0" d="M1554,328.8h-58l-9.3,27.5H1447l56.3-155.5h43.9l56.3,155.5h-40.1L1554,328.8L1554,328.8z M1544.2,299.6
		l-19.3-56.9l-19,56.9H1544.2z"/>
	<path class="st0" d="M1646.8,352.3c-9-3.7-16.2-9.1-21.6-16.4c-5.4-7.2-8.2-16-8.5-26.1h40.3c0.6,5.8,2.6,10.2,6,13.2
		c3.4,3,7.8,4.5,13.3,4.5c5.5,0,10-1.3,13.3-3.9c3.2-2.6,4.9-6.2,4.9-10.7c0-3.8-1.3-7-3.9-9.5c-2.6-2.5-5.8-4.6-9.5-6.2
		c-3.8-1.6-9.1-3.5-16-5.5c-10-3.1-18.2-6.2-24.6-9.3c-6.3-3.1-11.8-7.7-16.4-13.7c-4.6-6.1-6.9-14-6.9-23.7
		c0-14.5,5.3-25.8,15.7-34s24.2-12.3,41-12.3c16.8,0,30.9,4.1,41.4,12.3s16.1,19.6,16.8,34.2h-41c-0.3-5-2.1-9-5.5-11.9
		c-3.4-2.9-7.8-4.3-13.1-4.3c-4.6,0-8.3,1.2-11.1,3.7c-2.8,2.4-4.2,5.9-4.2,10.5c0,5,2.4,8.9,7.1,11.7c4.7,2.8,12.1,5.8,22.2,9.1
		c10,3.4,18.2,6.6,24.5,9.8c6.3,3.1,11.7,7.6,16.3,13.5c4.6,5.9,6.9,13.5,6.9,22.8s-2.3,16.9-6.8,24.2c-4.5,7.2-11.1,13-19.6,17.3
		c-8.6,4.3-18.7,6.4-30.4,6.4C1665.7,357.9,1655.8,356.1,1646.8,352.3L1646.8,352.3z"/>
	<path class="st0" d="M1869.8,200.8v30.4h-41.2v125.2h-37.9V231.1h-41.2v-30.4H1869.8z"/>
	<path class="st0" d="M1927.4,231.1v31.5h50.7v29.2h-50.7v34.1h57.4v30.4h-95.2V200.8h95.2v30.4L1927.4,231.1L1927.4,231.1z"/>
	<path class="st0" d="M2035.8,352.3c-9-3.7-16.2-9.1-21.6-16.4c-5.4-7.2-8.2-16-8.5-26.1h40.3c0.6,5.8,2.6,10.2,6,13.2
		c3.4,3,7.8,4.5,13.3,4.5s10-1.3,13.3-3.9c3.3-2.6,4.9-6.2,4.9-10.7c0-3.8-1.3-7-3.9-9.5s-5.8-4.6-9.5-6.2c-3.8-1.6-9.1-3.5-16-5.5
		c-10-3.1-18.2-6.2-24.6-9.3c-6.3-3.1-11.8-7.7-16.4-13.7s-6.9-14-6.9-23.7c0-14.5,5.3-25.8,15.7-34s24.2-12.3,41-12.3
		s30.9,4.1,41.4,12.3s16.1,19.6,16.8,34.2h-41c-0.3-5-2.1-9-5.5-11.9c-3.4-2.9-7.8-4.3-13.1-4.3c-4.6,0-8.3,1.2-11.1,3.7
		c-2.8,2.4-4.2,5.9-4.2,10.5c0,5,2.4,8.9,7.1,11.7c4.7,2.8,12.1,5.8,22.2,9.1c10,3.4,18.2,6.6,24.5,9.8c6.3,3.1,11.7,7.6,16.3,13.5
		c4.6,5.9,6.9,13.5,6.9,22.8s-2.3,16.9-6.8,24.2c-4.5,7.2-11,13-19.6,17.3c-8.6,4.3-18.7,6.4-30.3,6.4S2044.8,356.1,2035.8,352.3
		L2035.8,352.3z"/>
</g>
<g>
	<path class="st0" d="M573.9,479c-9.8-4.8-19.6-9.4-29.3-14.2c-4.2-2-6.9-0.1-8.8,3.2c-2.8,5-6.6,6.5-11.4,3.2
		c-8-5.5-13.6-2.4-19.7,3.7c-5,5.1-3.8,7.2,2,9.6c16.2,6.5,31.9,13.8,47.4,21.7c6.5,3.3,8.6,1.1,7.3-5.4c-1.4-7.3,1-11.9,8.5-14
		c2.5-0.7,5.2-1.6,6.9-4.4C576.6,480.6,575.3,479.7,573.9,479L573.9,479z"/>
	<path class="st0" d="M170.8,471.1c-5.8,2-9.9,1.7-12.4-4.5c-1.5-3.8-4.2-5.4-8.5-3.9c-10,3.6-20,7-30,10.5c-4.3,1.5-5.5,4-0.7,6.3
		c8.4,4.1,14.5,9,9.6,18.2c-0.8,5.5,1,6.8,5,5.5c18.1-5.9,36.1-11.8,54.2-17.7c2.6-0.8,4.4-1.8,2.8-5.2
		C186.8,471.8,179.6,468.1,170.8,471.1L170.8,471.1z"/>
	<path class="st0" d="M547.3,421.9c-64.4-18.9-130.3-27.1-198.2-28.7c-40.7,0.3-82.2,2.7-123.4,9.2c-24.7,3.9-49.1,8.8-73.2,15.4
		c-11.5,3.1-10,3.2-6.6,13.8c0.6,1.9,15.7,37.5,24.1,34.9c79.6-25.1,99.3-22.8,174.9-25.7c43.2-1.7,138.8,9,179.5,25.2
		c4.2,1.7,13.3-10.1,19.1-18.4c1.5-1.9,3.1-4.3,5-7.4c0,0,0-0.1,0-0.1l0,0c1.1-1.8,2.2-3.8,3.6-6.1
		C557.2,424.8,557.1,424.7,547.3,421.9L547.3,421.9z"/>
	<path class="st0" d="M490.6,465.3c-13.6-4.2-49.6-10-60.5-11.4c-6.3-0.8-6.9,0.3-11.6,2.9c-24.2,13.2-49,19.1-73.7,17.9
		c-24.6,1.2-49.5-4.7-73.7-17.9c-4.7-2.6-5.3-3.7-11.6-2.9c-11,1.4-46.9,7.2-60.6,11.4c-5,1.5-3.5,7.2-2.4,8.3
		c38.7,38,85.7,57.8,141.4,58.3c2.3,0,4.6,0,6.8,0.1c2.3,0,4.6-0.1,6.8-0.1c55.7-0.6,102.7-20.3,141.4-58.3
		C494.1,472.5,495.6,466.8,490.6,465.3L490.6,465.3z"/>
	<text transform="matrix(0.899 -4.192508e-02 4.658343e-02 0.9989 293.8246 430.1735)" class="st1 st2 st3">R</text>
	<text transform="matrix(0.8997 -2.151786e-02 2.390873e-02 0.9997 312.5342 429.3229)" class="st1 st2 st3">E</text>
	<text transform="matrix(0.9 -6.283185e-04 6.981316e-04 1 328.0966 428.9236)" class="st1 st2 st3">C</text>
	<text transform="matrix(0.8999 1.507894e-02 -1.675438e-02 0.9999 350.5142 428.9733)" class="st1 st2 st3">I</text>
	<text transform="matrix(0.8996 2.795568e-02 -3.106186e-02 0.9995 358.7442 429.0732)" class="st1 st2 st3">P</text>
	<text transform="matrix(0.8989 4.396480e-02 -4.884977e-02 0.9988 376.5342 429.6431)" class="st1 st2 st3">E</text>
	<text transform="matrix(0.898 5.964650e-02 -6.627390e-02 0.9978 392.0944 430.3934)" class="st1 st2 st3">S</text>
	<path class="st0" d="M559.9,241.6c-10-79.4-83.8-166.9-206.5-172.4c14.3-6.9,21.2-16.5,15.6-30.8c-3.6-9.1-13.8-13.7-24.3-13.9
		c-10.5-0.1-20.6,4.8-24.3,13.9c-5.7,14.3,1.2,23.9,15.6,30.8c-122.7,5.5-196.6,93-206.5,172.4c-0.4,3.6-1,10.8,7.1,10.8h150.8
		c0.6-4.9,1.3-9.9,1.9-14.8c0.3-3-0.6-5.8-2.4-8.2c-2.5-3.4-5.3-6.6-7.9-9.8c-0.5-0.6-0.9-1.2-1.3-1.8c-1.8-2.3-2.5-4.9-2.3-7.8
		c0.6-8.6,1.1-17.2,1.6-25.8c0.5-7.2,1-14.4,1.5-21.6c0.5-7.1,1-14.2,1.5-21.2c0-0.6,0.7-2.7,2.6-2.7c2.5,0,2.6,3.1,2.6,3.1v55.2
		h5.3c0.1-1.3,0.1-2.6,0.2-3.8c0.4-10.7,0.8-21.4,1.2-32.1c0.2-6.6,0.5-13.2,0.7-19.9c0-0.5,0.7-2.5,2.6-2.5c1.6,0,2.6,1.6,2.6,2.4
		c0.7,18.7,1.4,37.3,2.1,55.9h5.3v-55.7c0,0,0.3-2.7,2.5-2.6c1.8,0,2.6,1.6,2.7,2.5c0.1,0.6,0.1,1.2,0.1,1.8
		c0.4,5.6,0.8,11.1,1.2,16.7c0.5,6.4,1,12.9,1.4,19.3c0.5,6.6,0.9,13.1,1.4,19.7c0.2,3.4,0.3,6.7,0.6,10.1c0.4,4.1-0.8,7.6-3.4,10.7
		c-2.5,2.9-4.7,5.9-7.2,8.9c-2.9,3.5-3.7,7.5-3.1,12c0.6,4.1,1.1,8.2,1.7,12.2h86.1c0-5.3-0.1-10.6-0.1-15.9c0-32.3,0-64.6,0-96.9
		v-1.1c3.2,0.1,6.1,0.7,8.8,2.2c4,2.3,6.7,5.7,8.9,9.6c2.8,5.4,4.5,11.1,5.7,17c1,4.7,1.4,9.5,1.4,14.3c0.1,11.6,0.1,23.2,0.2,34.9
		c0,1.1-0.1,2.2-0.1,3.3c0,3-1.4,5.2-3.7,6.9c-1.1,0.8-2.3,1.4-3.4,2.1c-0.7,0.5-1.3,1-1.8,1.6c-0.6,0.7-0.8,1.6-0.6,2.5
		c1.2,6.4,2.4,12.9,3.5,19.3h144.9C560.9,252.3,560.4,245.2,559.9,241.6L559.9,241.6z"/>
	<path class="st0" d="M607.5,288.8c0-14-7.9-22.8-21.8-24.7l-482-0.2c-14.7,1.7-22.8,10.6-22.8,25.4c-0.1,38.6-0.1,77.2,0,115.9
		c0,15.7,10.4,23,25.3,18c13.5-4.5,27-9.2,40.7-13.1c79-22.2,159.6-29.9,241.5-25.2c39.7,2.2,78.8,7.6,117.6,16.1
		c26.1,5.7,51.6,13.3,76.8,22.3c13.9,5,24.7-2.5,24.8-17.1C607.6,367,607.6,327.9,607.5,288.8L607.5,288.8z"/>
	<g>
		<path class="st1" d="M125.3,312.7v10.9h17.6v10.1h-17.6v11.8h19.9V356h-33v-53.9h33v10.5L125.3,312.7L125.3,312.7z"/>
		<path class="st1" d="M192.9,328.1c-1.4,2.6-3.6,4.7-6.6,6.2c-3,1.6-6.7,2.4-11.1,2.4h-8.1V356h-13.1v-53.9h21.3
			c4.3,0,7.9,0.7,10.9,2.2c3,1.5,5.2,3.5,6.7,6.1c1.5,2.6,2.2,5.6,2.2,9C195,322.6,194.3,325.5,192.9,328.1L192.9,328.1z
			 M179.8,324.5c1.2-1.2,1.8-2.8,1.8-5s-0.6-3.8-1.8-5s-3.1-1.8-5.6-1.8h-7.1v13.5h7.1C176.7,326.2,178.6,325.7,179.8,324.5
			L179.8,324.5z"/>
		<path class="st1" d="M215.2,302.1V356h-13.1v-53.9H215.2z"/>
		<path class="st1" d="M226.2,314.8c2.3-4.2,5.5-7.4,9.6-9.8c4.1-2.3,8.8-3.5,14-3.5c6.4,0,11.9,1.7,16.4,5.1
			c4.5,3.4,7.6,8,9.1,13.8h-14.4c-1.1-2.2-2.6-4-4.6-5.1c-2-1.2-4.2-1.8-6.7-1.8c-4,0-7.3,1.4-9.8,4.2c-2.5,2.8-3.8,6.6-3.8,11.3
			s1.2,8.5,3.8,11.3s5.8,4.2,9.8,4.2c2.5,0,4.8-0.6,6.7-1.8c2-1.2,3.5-2.9,4.6-5.1h14.4c-1.5,5.8-4.6,10.4-9.1,13.8
			c-4.6,3.4-10,5-16.4,5c-5.2,0-9.9-1.2-14-3.5s-7.3-5.6-9.6-9.7c-2.3-4.1-3.4-8.9-3.4-14.2S223.9,318.9,226.2,314.8L226.2,314.8z"
			/>
		<path class="st1" d="M338.9,302.1v10.5h-14.3V356h-13.1v-43.4h-14.3v-10.5H338.9L338.9,302.1z"/>
		<path class="st1" d="M379.3,346.5h-20.1L356,356h-13.7l19.5-53.9h15.2l19.5,53.9h-13.9L379.3,346.5L379.3,346.5z M375.9,336.4
			l-6.7-19.7l-6.6,19.7H375.9z"/>
		<path class="st1" d="M411.5,354.6c-3.1-1.3-5.6-3.2-7.5-5.7c-1.9-2.5-2.9-5.5-3-9.1h14c0.2,2,0.9,3.5,2.1,4.6
			c1.2,1,2.7,1.6,4.6,1.6s3.5-0.5,4.6-1.3c1.1-0.9,1.7-2.1,1.7-3.7c0-1.3-0.5-2.4-1.3-3.3c-0.9-0.9-2-1.6-3.3-2.1
			c-1.3-0.6-3.2-1.2-5.6-1.9c-3.5-1.1-6.3-2.1-8.5-3.2c-2.2-1.1-4.1-2.7-5.7-4.8c-1.6-2.1-2.4-4.8-2.4-8.2c0-5,1.8-8.9,5.5-11.8
			s8.4-4.3,14.2-4.3s10.7,1.4,14.4,4.3s5.6,6.8,5.8,11.9h-14.2c-0.1-1.7-0.7-3.1-1.9-4.1c-1.2-1-2.7-1.5-4.5-1.5
			c-1.6,0-2.9,0.4-3.8,1.3c-1,0.8-1.5,2.1-1.5,3.6c0,1.7,0.8,3.1,2.5,4.1c1.6,1,4.2,2,7.7,3.1c3.5,1.2,6.3,2.3,8.5,3.4
			c2.2,1.1,4,2.6,5.6,4.7c1.6,2,2.4,4.7,2.4,7.9s-0.8,5.9-2.3,8.4s-3.8,4.5-6.8,6c-3,1.5-6.5,2.2-10.5,2.2S414.6,356,411.5,354.6
			L411.5,354.6z"/>
		<path class="st1" d="M488.7,302.1v10.5h-14.3V356h-13.1v-43.4h-14.3v-10.5H488.7z"/>
		<path class="st1" d="M508.7,312.7v10.9h17.6v10.1h-17.6v11.8h19.9V356h-33v-53.9h33v10.5L508.7,312.7L508.7,312.7z"/>
		<path class="st1" d="M546.2,354.6c-3.1-1.3-5.6-3.2-7.5-5.7c-1.9-2.5-2.9-5.5-3-9.1h14c0.2,2,0.9,3.5,2.1,4.6
			c1.2,1,2.7,1.6,4.6,1.6s3.5-0.5,4.6-1.3c1.1-0.9,1.7-2.1,1.7-3.7c0-1.3-0.5-2.4-1.3-3.3c-0.9-0.9-2-1.6-3.3-2.1s-3.2-1.2-5.6-1.9
			c-3.5-1.1-6.3-2.1-8.5-3.2c-2.2-1.1-4.1-2.7-5.7-4.8c-1.6-2.1-2.4-4.8-2.4-8.2c0-5,1.8-8.9,5.5-11.8s8.4-4.3,14.2-4.3
			s10.7,1.4,14.3,4.3s5.6,6.8,5.8,11.9h-14.2c-0.1-1.7-0.7-3.1-1.9-4.1c-1.2-1-2.7-1.5-4.5-1.5c-1.6,0-2.9,0.4-3.8,1.3
			c-1,0.8-1.5,2.1-1.5,3.6c0,1.7,0.8,3.1,2.5,4.1c1.6,1,4.2,2,7.7,3.1c3.5,1.2,6.3,2.3,8.5,3.4c2.2,1.1,4,2.6,5.6,4.7
			c1.6,2,2.4,4.7,2.4,7.9s-0.8,5.9-2.3,8.4s-3.8,4.5-6.8,6c-3,1.5-6.5,2.2-10.5,2.2C552.8,356.6,549.4,356,546.2,354.6L546.2,354.6z
			"/>
	</g>
	<text transform="matrix(0.8607 0.263 -0.2922 0.9564 269.7845 501.3235)" class="st1 st2 st4">E</text>
	<text transform="matrix(0.8773 0.2009 -0.2233 0.9748 284.1641 505.6832)" class="st1 st2 st4">S</text>
	<text transform="matrix(0.8885 0.1431 -0.159 0.9873 300.7144 509.4232)" class="st1 st2 st4">T</text>
	<text transform="matrix(0.8966 7.844017e-02 -8.715574e-02 0.9962 316.7148 512.0333)" class="st1 st2 st4">D</text>
	<text transform="matrix(0.8996 2.654261e-02 -2.949179e-02 0.9996 336.3447 513.5531)" class="st1 st2 st4">.</text>
	<text transform="matrix(0.8987 -4.914147e-02 5.460164e-02 0.9985 350.8343 513.8436)" class="st1 st2 st4">2</text>
	<text transform="matrix(0.8913 -0.1249 0.1388 0.9903 367.1346 512.9434)" class="st1 st2 st4">0</text>
	<text transform="matrix(0.876 -0.2064 0.2294 0.9733 385.2242 510.3132)" class="st1 st2 st4">2</text>
	<text transform="matrix(0.8512 -0.2923 0.3247 0.9458 401.2643 506.5128)" class="st1 st2 st4">0</text>
</g>
</svg>
