<?xml version="1.0" encoding="utf-8"?>
<!-- Generator: Adobe Illustrator 27.8.1, SVG Export Plug-In . SVG Version: 6.00 Build 0)  -->
<svg version="1.1" id="Calque_1" xmlns="http://www.w3.org/2000/svg" xmlns:xlink="http://www.w3.org/1999/xlink" x="0px" y="0px"
	 viewBox="0 0 512 512" style="enable-background:new 0 0 512 512;" xml:space="preserve">
<style type="text/css">
	.st0{fill:none;stroke:#EA580C;stroke-width:30;stroke-linecap:round;stroke-linejoin:round;stroke-miterlimit:10;}
</style>
<path class="st0" d="M111.4,15c-8.5,0-16.7,3.4-22.7,9.4s-9.4,14.2-9.4,22.7V475c0,12.1,9.8,22,21.9,22h0.1c6.5,0,12.7-2.6,17.3-7.2
	c21.3-21.3,84.1-84.1,110.1-110c7.2-7.3,17.1-11.4,27.4-11.4s20.2,4.1,27.4,11.4c26,26,89.2,89.1,110.2,110.2c4.5,4.5,10.5,7,16.9,7
	c12.3,0,22.3-10,22.3-22.2V47.1c0-17.7-14.4-32.1-32.1-32.1l0,0H111.4z"/>
</svg>
