<?xml version="1.0" encoding="utf-8"?>
<!-- Generator: Adobe Illustrator 27.8.1, SVG Export Plug-In . SVG Version: 6.00 Build 0)  -->
<svg version="1.1" id="Calque_1" xmlns="http://www.w3.org/2000/svg" xmlns:xlink="http://www.w3.org/1999/xlink" x="0px" y="0px"
	 viewBox="0 0 1465.7 455.5" style="enable-background:new 0 0 1465.7 455.5;" xml:space="preserve">
<style type="text/css">
	.st0{fill:#FFFFFF;}
	.st1{fill:none;}
	.st2{enable-background:new    ;}
</style>
<g>
	<path class="st0" d="M303.1,97c-17-18.5-40.4-28.7-65.8-28.7c-19,0-36.4,6-51.7,17.9c-7.7,6-14.7,13.3-20.9,21.9
		c-6.2-8.6-13.2-15.9-20.9-21.9C128.3,74.3,111,68.3,91.9,68.3c-25.4,0-48.8,10.2-65.8,28.7C9.3,115.3,0,140.2,0,167.3
		c0,27.8,10.4,53.3,32.7,80.2c19.9,24,48.5,48.5,81.7,76.7c11.3,9.6,24.2,20.6,37.5,32.3c3.5,3.1,8,4.8,12.7,4.8s9.2-1.7,12.7-4.8
		c13.3-11.6,26.2-22.6,37.5-32.3c33.2-28.3,61.8-52.7,81.7-76.7c22.2-26.9,32.7-52.3,32.7-80.2C329.2,140.2,319.9,115.3,303.1,97z"
		/>
</g>
<rect x="440.8" y="146.8" class="st1" width="865.7" height="161.8"/>
<g class="st2">
	<path class="st0" d="M697.7,126L652,301.5h-51.8l-28-115.5l-29,115.5h-51.7L447,126h45.8L518,253.8L549.2,126h47l30,127.7
		L651.7,126H697.7z"/>
	<path class="st0" d="M722.4,140.9c-4.8-4.4-7.1-9.9-7.1-16.4c0-6.7,2.4-12.2,7.1-16.6c4.7-4.4,10.9-6.6,18.4-6.6
		c7.3,0,13.4,2.2,18.1,6.6c4.8,4.4,7.1,10,7.1,16.6c0,6.5-2.4,12-7.1,16.4c-4.8,4.4-10.8,6.6-18.1,6.6
		C733.2,147.5,727.1,145.3,722.4,140.9z M762,162v139.5h-42.7V162H762z"/>
	<path class="st0" d="M817.2,297.3c-9.5-4.2-17-9.9-22.5-17.1s-8.6-15.4-9.2-24.4h42.2c0.5,4.8,2.8,8.8,6.8,11.8s8.9,4.5,14.8,4.5
		c5.3,0,9.5-1,12.4-3.1c2.9-2.1,4.4-4.8,4.4-8.1c0-4-2.1-7-6.2-8.9c-4.2-1.9-10.9-4-20.2-6.4c-10-2.3-18.3-4.8-25-7.4
		c-6.7-2.6-12.4-6.7-17.2-12.2c-4.8-5.6-7.2-13.1-7.2-22.6c0-8,2.2-15.3,6.6-21.9c4.4-6.6,10.9-11.8,19.5-15.6
		c8.6-3.8,18.8-5.8,30.6-5.8c17.5,0,31.3,4.3,41.4,13c10.1,8.7,15.9,20.2,17.4,34.5H866c-0.7-4.8-2.8-8.7-6.4-11.5
		c-3.6-2.8-8.3-4.2-14.1-4.2c-5,0-8.8,1-11.5,2.9c-2.7,1.9-4,4.5-4,7.9c0,4,2.1,7,6.4,9s10.9,4,19.9,6c10.3,2.7,18.8,5.3,25.2,7.9
		c6.5,2.6,12.2,6.7,17.1,12.5c4.9,5.8,7.5,13.5,7.6,23.1c0,8.2-2.3,15.5-6.9,21.9c-4.6,6.4-11.2,11.5-19.8,15.1
		c-8.6,3.7-18.5,5.5-29.9,5.5C837.6,303.5,826.7,301.4,817.2,297.3z"/>
	<path class="st0" d="M1056.7,176.4c9.7,10.6,14.5,25.1,14.5,43.6v81.5h-42.5v-75.7c0-9.3-2.4-16.6-7.2-21.8
		c-4.8-5.2-11.3-7.8-19.5-7.8c-8.2,0-14.7,2.6-19.5,7.8c-4.8,5.2-7.2,12.4-7.2,21.8v75.7h-42.8v-185h42.8v64.3
		c4.3-6.2,10.2-11.1,17.8-14.8c7.5-3.7,15.9-5.5,25.2-5.5C1034.2,160.5,1047.1,165.8,1056.7,176.4z"/>
	<path class="st0" d="M1143.7,116.5v185H1101v-185H1143.7z"/>
	<path class="st0" d="M1177.8,140.9c-4.8-4.4-7.1-9.9-7.1-16.4c0-6.7,2.4-12.2,7.1-16.6c4.8-4.4,10.9-6.6,18.4-6.6
		c7.3,0,13.4,2.2,18.1,6.6c4.8,4.4,7.1,10,7.1,16.6c0,6.5-2.4,12-7.1,16.4c-4.8,4.4-10.8,6.6-18.1,6.6
		C1188.7,147.5,1182.6,145.3,1177.8,140.9z M1217.5,162v139.5h-42.8V162H1217.5z"/>
	<path class="st0" d="M1272.7,297.3c-9.5-4.2-17-9.9-22.5-17.1s-8.6-15.4-9.2-24.4h42.2c0.5,4.8,2.8,8.8,6.8,11.8s8.9,4.5,14.8,4.5
		c5.3,0,9.5-1,12.4-3.1c2.9-2.1,4.4-4.8,4.4-8.1c0-4-2.1-7-6.2-8.9c-4.2-1.9-10.9-4-20.2-6.4c-10-2.3-18.3-4.8-25-7.4
		c-6.7-2.6-12.4-6.7-17.2-12.2c-4.8-5.6-7.2-13.1-7.2-22.6c0-8,2.2-15.3,6.6-21.9c4.4-6.6,10.9-11.8,19.5-15.6
		c8.6-3.8,18.8-5.8,30.6-5.8c17.5,0,31.3,4.3,41.4,13c10.1,8.7,15.9,20.2,17.4,34.5h-39.5c-0.7-4.8-2.8-8.7-6.4-11.5
		c-3.6-2.8-8.3-4.2-14.1-4.2c-5,0-8.8,1-11.5,2.9c-2.7,1.9-4,4.5-4,7.9c0,4,2.1,7,6.4,9s10.9,4,19.9,6c10.3,2.7,18.8,5.3,25.2,7.9
		c6.5,2.6,12.2,6.7,17.1,12.5c4.9,5.8,7.5,13.5,7.6,23.1c0,8.2-2.3,15.5-6.9,21.9c-4.6,6.4-11.2,11.5-19.8,15.1
		c-8.6,3.7-18.5,5.5-29.9,5.5C1293.1,303.5,1282.2,301.4,1272.7,297.3z"/>
	<path class="st0" d="M1465.7,265.3v36.2H1444c-15.5,0-27.6-3.8-36.2-11.4c-8.7-7.6-13-20-13-37.1v-55.5h-17V162h17v-34h42.8v34h28
		v35.5h-28v56c0,4.2,1,7.2,3,9c2,1.8,5.3,2.8,10,2.8H1465.7z"/>
</g>
</svg>
