<?xml version="1.0" encoding="UTF-8"?>
<svg id="Calque_1" data-name="Calque 1" xmlns="http://www.w3.org/2000/svg" viewBox="0 0 1024.9 202.4">
  <defs>
    <style>
      .cls-1 {
        isolation: isolate;
      }

      .cls-2 {
        fill: none;
      }

      .cls-2, .cls-3 {
        stroke-width: 0px;
      }

      .cls-3 {
        fill: #fff;
      }
    </style>
  </defs>
  <rect class="cls-2" y="20.25" width="865.7" height="161.8"/>
  <g class="cls-1">
    <path class="cls-3" d="m256.9,24.7l-45.7,175.5h-51.8l-28-115.5-29,115.5h-51.7L6.2,24.7h45.8l25.2,127.8,31.2-127.8h47l30,127.7,25.5-127.7h46Z"/>
    <path class="cls-3" d="m281.6,39.6c-4.8-4.4-7.1-9.9-7.1-16.4s2.4-12.2,7.1-16.6c4.7-4.4,10.9-6.6,18.4-6.6s13.4,2.2,18.1,6.6c4.8,4.4,7.1,10,7.1,16.6s-2.4,12-7.1,16.4c-4.8,4.4-10.8,6.6-18.1,6.6s-13.7-2.2-18.4-6.6Zm39.6,21.1v139.5h-42.7V60.7h42.7Z"/>
    <path class="cls-3" d="m376.4,196c-9.5-4.2-17-9.9-22.5-17.1s-8.6-15.4-9.2-24.4h42.2c.5,4.8,2.8,8.8,6.8,11.8s8.9,4.5,14.8,4.5c5.3,0,9.5-1,12.4-3.1s4.4-4.8,4.4-8.1c0-4-2.1-7-6.2-8.9-4.2-1.9-10.9-4-20.2-6.4-10-2.3-18.3-4.8-25-7.4-6.7-2.6-12.4-6.7-17.2-12.2-4.8-5.6-7.2-13.1-7.2-22.6,0-8,2.2-15.3,6.6-21.9,4.4-6.6,10.9-11.8,19.5-15.6s18.8-5.8,30.6-5.8c17.5,0,31.3,4.3,41.4,13,10.1,8.7,15.9,20.2,17.4,34.5h-39.8c-.7-4.8-2.8-8.7-6.4-11.5-3.6-2.8-8.3-4.2-14.1-4.2-5,0-8.8,1-11.5,2.9s-4,4.5-4,7.9c0,4,2.1,7,6.4,9s10.9,4,19.9,6c10.3,2.7,18.8,5.3,25.2,7.9,6.5,2.6,12.2,6.7,17.1,12.5,4.9,5.8,7.5,13.5,7.6,23.1,0,8.2-2.3,15.5-6.9,21.9-4.6,6.4-11.2,11.5-19.8,15.1-8.6,3.7-18.5,5.5-29.9,5.5-12-.2-22.9-2.3-32.4-6.4Z"/>
    <path class="cls-3" d="m615.9,75.1c9.7,10.6,14.5,25.1,14.5,43.6v81.5h-42.5v-75.7c0-9.3-2.4-16.6-7.2-21.8s-11.3-7.8-19.5-7.8-14.7,2.6-19.5,7.8-7.2,12.4-7.2,21.8v75.7h-42.8V15.2h42.8v64.3c4.3-6.2,10.2-11.1,17.8-14.8,7.5-3.7,15.9-5.5,25.2-5.5,15.9,0,28.8,5.3,38.4,15.9Z"/>
    <path class="cls-3" d="m702.9,15.2v185h-42.7V15.2h42.7Z"/>
    <path class="cls-3" d="m737,39.6c-4.8-4.4-7.1-9.9-7.1-16.4s2.4-12.2,7.1-16.6c4.8-4.4,10.9-6.6,18.4-6.6s13.4,2.2,18.1,6.6c4.8,4.4,7.1,10,7.1,16.6s-2.4,12-7.1,16.4c-4.8,4.4-10.8,6.6-18.1,6.6s-13.6-2.2-18.4-6.6Zm39.7,21.1v139.5h-42.8V60.7h42.8Z"/>
    <path class="cls-3" d="m831.9,196c-9.5-4.2-17-9.9-22.5-17.1s-8.6-15.4-9.2-24.4h42.2c.5,4.8,2.8,8.8,6.8,11.8s8.9,4.5,14.8,4.5c5.3,0,9.5-1,12.4-3.1s4.4-4.8,4.4-8.1c0-4-2.1-7-6.2-8.9-4.2-1.9-10.9-4-20.2-6.4-10-2.3-18.3-4.8-25-7.4-6.7-2.6-12.4-6.7-17.2-12.2-4.8-5.6-7.2-13.1-7.2-22.6,0-8,2.2-15.3,6.6-21.9,4.4-6.6,10.9-11.8,19.5-15.6s18.8-5.8,30.6-5.8c17.5,0,31.3,4.3,41.4,13s15.9,20.2,17.4,34.5h-39.5c-.7-4.8-2.8-8.7-6.4-11.5s-8.3-4.2-14.1-4.2c-5,0-8.8,1-11.5,2.9s-4,4.5-4,7.9c0,4,2.1,7,6.4,9s10.9,4,19.9,6c10.3,2.7,18.8,5.3,25.2,7.9,6.5,2.6,12.2,6.7,17.1,12.5s7.5,13.5,7.6,23.1c0,8.2-2.3,15.5-6.9,21.9s-11.2,11.5-19.8,15.1c-8.6,3.7-18.5,5.5-29.9,5.5-12.3-.2-23.2-2.3-32.7-6.4Z"/>
    <path class="cls-3" d="m1024.9,164v36.2h-21.7c-15.5,0-27.6-3.8-36.2-11.4-8.7-7.6-13-20-13-37.1v-55.5h-17v-35.5h17V26.7h42.8v34h28v35.5h-28v56c0,4.2,1,7.2,3,9s5.3,2.8,10,2.8h15.1Z"/>
  </g>
</svg>